<svg xmlns="http://www.w3.org/2000/svg" width="42" height="42.017" viewBox="0 0 42 42.017">
  <path id="Path_90" data-name="Path 90" d="M41.339.786A2.685,2.685,0,0,0,39.321,0a71.132,71.132,0,0,0-7.268.776A96.918,96.918,0,0,0,17.617,4.057a47.786,47.786,0,0,0-7.008,2.7,19.218,19.218,0,0,0-5.362,3.565l-.033.035a18.929,18.929,0,0,0-4.783,16.3,18.652,18.652,0,0,0,2.39,6.253c.411.692.984,1.5,28.806-22.416C7.6,38.227,8.29,38.724,9.176,39.277a18.321,18.321,0,0,0,7.331,2.59,18.822,18.822,0,0,0,2.364.149h0a18.866,18.866,0,0,0,8.8-2.177,16.374,16.374,0,0,0,4.437-3.288,23.213,23.213,0,0,0,3.763-6.116,71.258,71.258,0,0,0,4.337-14.281A78.121,78.121,0,0,0,42.122,2.8,2.683,2.683,0,0,0,41.339.786Z" transform="translate(-0.124 0)" fill="#fff"/>
</svg>
