<?xml version="1.0" standalone="no"?>
<!DOCTYPE svg PUBLIC "-//W3C//DTD SVG 20010904//EN"
 "http://www.w3.org/TR/2001/REC-SVG-20010904/DTD/svg10.dtd">
<svg version="1.0" xmlns="http://www.w3.org/2000/svg"
 width="127.000000pt" height="127.000000pt" viewBox="0 0 127.000000 127.000000"
 preserveAspectRatio="xMidYMid meet">
<metadata>
Created by potrace 1.14, written by Peter Selinger 2001-2017
</metadata>
<g transform="translate(0.000000,127.000000) scale(0.100000,-0.100000)"
fill="#000000" stroke="none">
<path d="M610 992 c-14 -2 -28 -7 -32 -11 -12 -11 64 -153 94 -174 30 -22 91
-25 114 -6 11 9 18 6 34 -12 25 -30 55 -107 46 -116 -4 -4 -54 -8 -111 -8
l-104 -1 -16 37 c-10 20 -31 52 -48 70 -21 23 -32 45 -33 68 -4 75 -49 111
-142 113 -72 1 -142 -11 -142 -24 0 -6 16 -44 35 -84 53 -109 115 -145 187
-108 l32 17 28 -34 c16 -18 27 -38 25 -44 -2 -6 -49 -10 -118 -10 l-114 0 -12
27 c-16 36 -69 68 -113 68 -37 0 -124 -46 -189 -99 l-34 -28 64 -45 c75 -52
128 -78 161 -78 37 0 90 32 107 65 l16 30 118 0 c74 0 117 -4 117 -10 0 -6
-12 -25 -27 -43 l-28 -33 -33 17 c-42 21 -96 13 -129 -18 -24 -23 -93 -151
-93 -173 0 -29 184 -36 231 -8 30 18 52 60 53 102 1 16 15 41 33 61 18 19 38
50 44 68 6 17 14 33 17 33 29 5 206 3 215 -3 13 -8 -14 -82 -42 -115 -17 -21
-21 -22 -46 -9 -34 18 -83 10 -114 -17 -30 -27 -93 -159 -81 -171 4 -4 46 -10
91 -11 118 -5 161 22 164 103 1 18 11 42 23 55 24 26 72 124 72 150 0 20 -11
19 170 22 184 3 170 0 161 32 l-7 28 -158 0 -158 0 -18 59 c-10 32 -32 75 -48
95 -17 21 -32 54 -35 74 -6 48 -31 85 -64 98 -25 9 -104 10 -163 1z"/>
</g>
</svg>
